/* XPM */
static char *close_xpm[] = {
/* columns rows colors chars-per-pixel */
"22 22 240 2",
"   c #5B2C29",
".  c #6B0E0D",
"X  c #661513",
"o  c #6F1110",
"O  c #740303",
"+  c #710E0E",
"@  c #7A0000",
"#  c #790807",
"$  c #721514",
"%  c #612E2D",
"&  c #79552E",
"*  c #705F39",
"=  c #7F6A3D",
"-  c #514F4C",
";  c #5D4544",
":  c #51514D",
">  c #5B564A",
",  c #675B41",
"<  c #726453",
"1  c #830000",
"2  c #820807",
"3  c #820909",
"4  c #8B0101",
"5  c #890A09",
"6  c #811411",
"7  c #881C13",
"8  c #940302",
"9  c #930A09",
"0  c #9B0101",
"q  c #9A0E0D",
"w  c #9D1311",
"e  c #892311",
"r  c #933A16",
"t  c #9A3714",
"y  c #81302D",
"u  c #932726",
"i  c #A30303",
"p  c #A20F0E",
"a  c #A80807",
"s  c #A4100E",
"d  c #A41210",
"f  c #AC1211",
"g  c #B12510",
"h  c #A42C2B",
"j  c #AE3939",
"k  c #B33C3C",
"l  c #9E6123",
"z  c #937231",
"x  c #AB5023",
"c  c #A95923",
"v  c #A75E37",
"b  c #B56A1F",
"n  c #A27F33",
"m  c #B26434",
"M  c #B77023",
"N  c #B87537",
"B  c #966F48",
"V  c #AC5352",
"C  c #AE5856",
"Z  c #AF5C5B",
"A  c #BB5E5E",
"S  c #A2615E",
"D  c #A37248",
"F  c #AC7B52",
"G  c #B87C46",
"H  c #B47F54",
"J  c #AB6764",
"K  c #BE6867",
"L  c #B77877",
"P  c #BA7A79",
"I  c #C7490F",
"U  c #C64F1F",
"Y  c #C0761E",
"T  c #D36314",
"R  c #C57A24",
"E  c #CF7122",
"W  c #CD792C",
"Q  c #C17932",
"!  c #CC7E3D",
"~  c #D67926",
"^  c #DB772A",
"/  c #DF7D22",
"(  c #C36767",
")  c #C66C6C",
"_  c #AB8128",
"`  c #B4852B",
"'  c #B98A2C",
"]  c #B48D39",
"[  c #9D9776",
"{  c #9D9778",
"}  c #9E9979",
"|  c #BA844A",
" . c #BC925B",
".. c #A3906A",
"X. c #A09A7A",
"o. c #AA9471",
"O. c #B58962",
"+. c #B99366",
"@. c #B09477",
"#. c #B79976",
"$. c #BEA37B",
"%. c #C38632",
"&. c #C38C30",
"*. c #CC843F",
"=. c #C19130",
"-. c #C3913B",
";. c #CA9832",
":. c #D1813F",
">. c #E0881F",
",. c #F7A12D",
"<. c #C48447",
"1. c #C28E40",
"2. c #C88F50",
"3. c #C09646",
"4. c #C5954C",
"5. c #C19846",
"6. c #C29A49",
"7. c #CD9749",
"8. c #C89E40",
"9. c #C49D54",
"0. c #D48340",
"q. c #D19645",
"w. c #D49B49",
"e. c #C59D66",
"r. c #CF9C6B",
"t. c #C79D75",
"y. c #D39F6D",
"u. c #D99F70",
"i. c #CEA24E",
"p. c #CBA950",
"a. c #D4A048",
"s. c #DCA24C",
"d. c #DDA654",
"f. c #D6B04F",
"g. c #DAB75D",
"h. c #C6A57C",
"j. c #C7A87F",
"k. c #D5A06F",
"l. c #D1AA6E",
"z. c #D5A171",
"x. c #D7A87B",
"c. c #E1A64F",
"v. c #E3A850",
"b. c #EEA955",
"n. c #F3A943",
"m. c #F3BB57",
"M. c #E2BE60",
"N. c #E9C462",
"B. c #EEC865",
"V. c #F1CA67",
"C. c #A49F80",
"Z. c #B69D81",
"A. c #BF9F80",
"S. c #BE9B97",
"D. c #A5A083",
"F. c #A9A486",
"G. c #ABA58A",
"H. c #AEA98F",
"J. c #ACA791",
"K. c #AFAB93",
"L. c #B0AB8D",
"P. c #BCA889",
"I. c #B2AD93",
"U. c #B0AD98",
"Y. c #B6B195",
"T. c #B7B39E",
"R. c #B9B395",
"E. c #B9B499",
"W. c #BEB99E",
"Q. c #B5B3A3",
"!. c #BAB6A2",
"~. c #BFBAA0",
"^. c #BDBAAA",
"/. c #C89593",
"(. c #D19191",
"). c #C5A581",
"_. c #C5A983",
"`. c #C4AC8D",
"'. c #C8A982",
"]. c #CBAD8D",
"[. c #C4B296",
"{. c #C5B298",
"}. c #DEB285",
"|. c #DBB28B",
" X c #CCA7A4",
".X c #C1BCA2",
"XX c #C0BEAC",
"oX c #CCBBA5",
"OX c #C2BFB3",
"+X c #CBB8B4",
"@X c #D9B9B8",
"#X c #E2B285",
"$X c #E8BE95",
"%X c #EABF9C",
"&X c #C5C0A6",
"*X c #C6C2A9",
"=X c #C8C2A7",
"-X c #C9C4AA",
";X c #C5C2B4",
":X c #C8C6B9",
">X c #CDC9B2",
",X c #CAC8BB",
"<X c #D0C0A4",
"1X c #DAC1AB",
"2X c #D2CBB3",
"3X c #D2CEB8",
"4X c #DBCDB9",
"5X c #D7D1B7",
"6X c #D6D2BC",
"7X c #DCD3BC",
"8X c #E2C1A2",
"9X c #E1C9B4",
"0X c #E1CCB8",
"qX c #CECBC0",
"wX c #D0CEC3",
"eX c #D3D0C5",
"rX c #D6D4CB",
"tX c #D9D5C1",
"yX c #DDD9C2",
"uX c #DCDBD7",
"iX c #E2CFCD",
"pX c #E8C6C6",
"aX c #E1DDC5",
"sX c #E0D8D5",
"dX c #E5E2CB",
"fX c #E6E2D1",
"gX c #E2E1DE",
"hX c #E9E5D3",
"jX c #ECE9D7",
"kX c #ECE9D8",
"lX c #EEE4E2",
"zX c #E9E8E5",
"xX c #EDECEA",
"cX c #F0EDE1",
"vX c #F7EEEE",
"bX c #F1F1EF",
"nX c #F4F4F3",
"mX c #F9F0F0",
"MX c #FCFCFC",
"NX c None",
/* pixels */
"NXNXkXkXjXyX>X-X&X=X-X-X=X=X*X-XtXfXkXkXkXkX",
"kXkXkXtX[ F.Y.R.R.E.E.E.R.Y.K.H.D.} [ hXkXkX",
"kXkX-XD.-XdXaXh.d.v.v.s.s.w.7.e.+.I.D.{ fXkX",
"kX5XD.7XaXaXoXq.n.m.V.B.N.M.g.i.1. .!.G.{ hX",
"hX} 2XaXdXjX| ,.b.^ 0.0.*.*.a.f.p.1.P.Q.C.6X",
"6XH.aXdXzX$.>.U f f f f s d w x 8.-._.OXU.E.",
".X.XyXhX7XY I a i i i i 0 0 8 9 c &.'.,X^.G.",
"E.=XaXkXO.T a i ) pXk i K @XC 4 5 b '.wX;XC.",
"R.-XaXaXR g i i mXMXvXj bXxXuX4 5 t h.wX:XX.",
"R.-X7X0XE p i 0 ) MXMXMXbXxXZ 4 5 7 h.wX,XC.",
"E.=X7X7Xm p 0 0 0 (.MXnXbX/.4 1 2 6 h.wX,XC.",
"Y.&X7X2Xv q 8 0 0 A nXbXxXC 1 1 # 6 `.wX:XC.",
"E..X5XoXB q 8 8 h lXvXxXzXgXu 1 # e [.wX:XC.",
"E.W.>XZ.Q y 4 4 iXxXzXV gXuX+X@ # r [.wX:XC.",
"Y.E.-X@./ < 3 1 P  XL @ J S.S O $ l ].eX,XD.",
"~.Y..XF ~ ] ; $ @ @ @ O O O O X & M y.1X,XG.",
">XG.W.D W ;.n > % + # O O X   * _ 2.#X9X^.E.",
"fX} T.H N %.&.' = > : - - , z ` 9.}.$X0XI.-X",
"kXXXF.+.G <.4.6.6.6.5.5.3.6.9.l.}.$X%X`.} fX",
"kXkX.Xo.#.t.y.y.k.k.k.y.y.k.x.|.8X9X)...tXkX",
"kXkXfX{ H.^.:XqXwXwXwXwXwXwXeXrXrX*XC.tXkXkX",
"kXkXkXyXW.{ [ [ [ [ [ [ { [ { { { L.,XkXkXkX"
};
