/* XPM */
static const char * dcolorreset_xpm[] = {
"12 12 3 1",
" 	c None",
".	c #808080",
"+	c #000000",
"........    ",
".++++++.    ",
".++++++.    ",
".++++++.    ",
".++++++.....",
".++++++.   .",
".++++++.   .",
"........   .",
"    .      .",
"    .      .",
"    .      .",
"    ........"};
