/* XPM */
const char *brush_xpm[] = {
/* columns rows colors chars-per-pixel */
"33 33 257 2",
"   c #040302",
".  c #090301",
"X  c #090909",
"o  c #120400",
"O  c #130801",
"+  c #120D08",
"@  c #1B0600",
"#  c #1B0900",
"$  c #1E0E08",
"%  c #1E1005",
"&  c #1C1A16",
"*  c #250B00",
"=  c #2B0C00",
"-  c #200700",
";  c #2B1105",
":  c #340D00",
">  c #3D0D00",
",  c #3A1200",
"<  c #361808",
"1  c #301F16",
"2  c #26221C",
"3  c #33312E",
"4  c #490F00",
"5  c #441401",
"6  c #4C1A00",
"7  c #531D00",
"8  c #5E1B00",
"9  c #551602",
"0  c #4A2409",
"q  c #402516",
"w  c #522400",
"e  c #562A07",
"r  c #502917",
"t  c #6A1A00",
"y  c #731D00",
"u  c #652806",
"i  c #6D3A00",
"p  c #693C08",
"a  c #693519",
"s  c #742300",
"d  c #7B2A00",
"f  c #723500",
"g  c #753A00",
"h  c #763808",
"j  c #46423A",
"k  c #7B4501",
"l  c #7D4A03",
"z  c #724414",
"x  c #74511A",
"c  c #654F31",
"v  c #7B4825",
"b  c #474640",
"n  c #56524B",
"m  c #62554A",
"M  c #665E52",
"N  c #715C50",
"B  c #626056",
"V  c #6E6B63",
"C  c #7A786E",
"Z  c #842D00",
"A  c #833303",
"S  c #873A03",
"D  c #953803",
"F  c #8C4B09",
"G  c #864819",
"H  c #8B5006",
"J  c #8A5213",
"K  c #964605",
"L  c #954C11",
"P  c #995B0A",
"I  c #94540A",
"U  c #945816",
"Y  c #964E20",
"T  c #835535",
"R  c #8E6012",
"E  c #9E6116",
"W  c #996127",
"Q  c #A64A03",
"!  c #A85208",
"~  c #AB5A11",
"^  c #B15306",
"/  c #AC620B",
"(  c #A7670A",
")  c #A7631B",
"_  c #B86608",
"`  c #B76717",
"'  c #B8781A",
"]  c #A76C25",
"[  c #AF762D",
"{  c #A37531",
"}  c #B46C27",
"|  c #B67424",
" . c #B7783C",
".. c #826F46",
"X. c #886A55",
"o. c #817A54",
"O. c #857E59",
"+. c #94754C",
"@. c #927856",
"#. c #807D73",
"$. c #927565",
"%. c #A77740",
"&. c #CB6D03",
"*. c #C56E01",
"=. c #C36D1D",
"-. c #CB7400",
";. c #CB7807",
":. c #CC7B13",
">. c #C57819",
",. c #D67A00",
"<. c #D17F1C",
"1. c #C27320",
"2. c #C17F37",
"3. c #B48234",
"4. c #88825D",
"5. c #988657",
"6. c #8B8461",
"7. c #828074",
"8. c #938D6A",
"9. c #928864",
"0. c #968B74",
"q. c #96906D",
"w. c #97927C",
"e. c #9A9473",
"r. c #99957C",
"t. c #9E9877",
"y. c #9E987B",
"u. c #969175",
"i. c #A68658",
"p. c #B98048",
"a. c #B98A55",
"s. c #B99554",
"d. c #A48D65",
"f. c #A68F7A",
"g. c #A9956A",
"h. c #A49375",
"j. c #A39A7D",
"k. c #B49462",
"l. c #B89E73",
"z. c #CC8307",
"x. c #C78319",
"c. c #D38502",
"v. c #DB8B08",
"b. c #D58818",
"n. c #DE940A",
"m. c #D99119",
"M. c #C98227",
"N. c #CA8C3B",
"B. c #C2933A",
"V. c #D28429",
"C. c #D58934",
"Z. c #DA8E3D",
"A. c #DC9C25",
"S. c #DA932A",
"D. c #D99635",
"F. c #CC972B",
"G. c #DCA033",
"H. c #E29C17",
"J. c #E59309",
"K. c #E7A937",
"L. c #CB8746",
"P. c #C4954B",
"I. c #CA935C",
"U. c #DA9C5B",
"Y. c #C69B68",
"T. c #CEA559",
"R. c #DBA149",
"E. c #CCAD76",
"W. c #DCAC73",
"Q. c #E6AC48",
"!. c #E1AA52",
"~. c #EBB54A",
"^. c #EAB756",
"/. c #EDB961",
"(. c #E2B57D",
"). c #ECC16C",
"_. c #999580",
"`. c #9D9984",
"'. c #939082",
"]. c #A09C85",
"[. c #A19D89",
"{. c #A4A18B",
"}. c #A9A58D",
"|. c #AEA98C",
" X c #AAA593",
".X c #ACA59C",
"XX c #ADA994",
"oX c #ADAA99",
"OX c #A6A392",
"+X c #B0AA8D",
"@X c #B0AC9C",
"#X c #B1AA96",
"$X c #B6B195",
"%X c #B4B19C",
"&X c #B8B39A",
"*X c #BDB89E",
"=X c #A9A7A0",
"-X c #B1AEA1",
";X c #B5B3A2",
":X c #B9B4A2",
">X c #B8B5AA",
",X c #BCB9A5",
"<X c #BDBAAB",
"1X c #BEBCB1",
"2X c #C3BB9D",
"3X c #C1BDA4",
"4X c #C0BDAB",
"5X c #C0BEB3",
"6X c #E3B587",
"7X c #E9BD92",
"8X c #D3C09D",
"9X c #C5C1AC",
"0X c #C9C5AC",
"qX c #C8C3A6",
"wX c #C3C1B5",
"eX c #C5C2B8",
"rX c #C9C5B2",
"tX c #CDC9B4",
"yX c #CDCBBC",
"uX c #D1CDB2",
"iX c #D2CEB9",
"pX c #DECFBA",
"aX c #D6D1B5",
"sX c #D8D3B6",
"dX c #DAD5BA",
"fX c #DED9BE",
"gX c #EBC198",
"hX c #EDCAA7",
"jX c #E8D0A9",
"kX c #F0D2B6",
"lX c #CCCBC2",
"zX c #D0CEC5",
"xX c #D3D2CA",
"cX c #DEDAC4",
"vX c #D9D6C4",
"bX c #DAD9D3",
"nX c #DBDBD4",
"mX c #E0DBC2",
"MX c #E1DDCA",
"NX c #E0DFD9",
"BX c #F0DAC3",
"VX c #E5E1CC",
"CX c #EAE0CA",
"ZX c #E7E3D0",
"AX c #E9E5D3",
"SX c #EBE8D6",
"DX c #EEEBDC",
"FX c #E1E0DB",
"GX c #F0E1CF",
"HX c #F3EADC",
"JX c #EFEDE1",
"KX c #F0EEE1",
"LX c #F9EDE4",
"PX c #F2F0E4",
"IX c #F4F2E8",
"UX c gray100",
"YX c None",
/* pixels */
"YXYXYXYXYXYXuXj.4.o.8.q.8.8.q.q.8.8.8.8.8.8.8.8.V g.,XYXYXYXYXYXYX",
"YXYXYXYX0Xy.e.2XfXfXfXfXfXfXfXfXfXfXfXfXfXfXdXaXuX$Xt.8.*XYXYXYXYX",
"YXYXYX$X4.qXcXfXfXMXVXAXAXSXAXSXSXSXSXAXAXZXVXcX8X0XqX&X8.+XYXYXYX",
"YXYX&X8.sXfXfXSXIXIXIXIXPXPXPXIXPXPXPXPXIXIXPXJXW.dX0X,X%X8.|.YXYX",
"YX0X4.aXfXVXPXIXPXPXPXPXPXPXPXPXPXPXLXKXKXKXHXBX{ Y.xXyX>X%X6.$XYX",
"YXt.qXfXVXIXPXPXPXPXPXDXKXPXDXPXPXDXKXKXKXKXhXx.R x *XyX5X:XoX4.cX",
"tXe.fXcXPXPXPXDXPXDXPXDXDXKXPXDXDXPXDXHXhXZ.&._ P q c <X5X>X-Xw.$X",
"y.2XdXSXPXPXPXDXDXDXDXPXDXDXDXDXDXkX!.<.&.-.-._ J < < #.5X:X>X.X6.",
"O.sXdXIXPXKXHXDXDXDXDXDXHXDXLX7XC.&.;.:.n.n.z.( W e < 3 >X>X1X>X6.",
"o.dXmXPXKXKXDXDXDXPXDXDXHX6XV.,.:.b.D.Q.G.A.x.' U p 5 2 C >X1X<Xu.",
"q.dXVXPXKXKXDXDXDXDXDXGXU.,.c.` D.Q.^.^.K.D.| | F h , X V >XeX1Xr.",
"q.sXAXPXKXDXDXDXDXHXHX(.c.c.>.R.^.^.~.~.S.| M.| I e , X n :XeXeX].",
"q.sXZXPXDXDXSXDXDXDXjXv.c.z.!.)./.~.Q.N.] V.C.~ F 6 * X b ;XeXeX].",
"q.sXAXPXDXDXDXDXDXDX!.c.' G.^./.^.Q.[ | C.V.' H f w ; X b -XeXeX].",
"q.sXZXDXDXDXDXDXSXSX!.( _ A.Q.^.G.] E D.C.>.( g g 8 # X `.;XwXeX].",
"q.sXAXPXDXDXDXSXDXAXT.l P m.K.D.U I V.Z.:.( i g s :   & >XoXeXeX].",
"8.aXAXJXDXDXSXSXDXSXE.g I x.Z.G z ` C.;.( l f y 4 o   #.,X@XeXeXy.",
"8.aXZXHXDXSXSXSXCXGXI.H p I Y p G ` ~ H l w > : @ o < w. X@X5X5X{.",
"8.aXMXDXCX6XW.L.} F A F g u e e u w w w 5 > = o   0 |.:X%XoX5XwX].",
"8.uXMXZXU.| Q ! ! K K K g w ; O % = , 4 4 = . . 1 uX5X,XoX X1X5Xy.",
"9.qXdXL.` L D ^ _ b.c.*.K 7 ; * * # * @ o   X M tXrX4X%XXX{.5XeX{.",
"8.2XI. .] ~ ` :.m.m.J.&.Q Z 5 # O       X j  XtXrX4X&XXX{.{.eX1Xj.",
"8.l.a.%.} 1.V.S.A.m.&.^ D d 9 - % n M '.wXiXtXrX4X&XoX X`.OXeXeXt.",
"o.g.a.p.3.N.D.A.m.*.^ D A y 8 @ O @.iXiXtX0X9X4X*XoX X{.`.-XlXlX8.",
"$.g.i.a.P.P.F.z.` Q Q Z d y 4 - O X.9X9X9X,X,X%XXX}.{.`.`.eXlXzXC ",
"}.+.8.k.s.B.x./ Q L D Z y 8 : @ O h.,X*X&X&XXX X}.`.`.w.oXxXxX1X9.",
"dXO.h.g.s.3.) L D S Z y t > - X + ].XXXX|.}.{.`.`._._.OXlXnXnXw.2X",
"YX|.5.g.i.%.W G A a a u 9 ; $ + j {.{.{.{.`.`._.w.w. XlXFXNX<Xq.YX",
"YXcXt.5.g.i.+.T Y a a r 1 1 & 2 y.`.`.`._._._.w.`.<XxXFXFXlX6.qXYX",
"YXYX0Xe.@.h.].f.$.$.X.N N n n 0.XX X XoXoX;X>XeXxXnXFXFXeX6.&XYXYX",
"YXYXYXtXj.0.f. X.X.X=X=X=X=X1XlXlXlXlXlXzXzXxXxXnXnXxX X9.*XYXYXYX",
"YXYXYXYXAX&XO...0.].-X>X>X5XlXlXlXlXlXlXlXlXlX<X:X{.O.+XvXYXYXYXYX",
"YXYXYXYXYXYXYX3Xj.q.4.o.o.o.o.o.o.o.V 4...4.o.8.t.$XVXYXYXYXYXYXYX"
};
