<?xml version="1.0" encoding="UTF-8" standalone="no"?>
<!-- Created with Inkscape (http://www.inkscape.org/) -->

<svg
   xmlns:dc="http://purl.org/dc/elements/1.1/"
   xmlns:cc="http://creativecommons.org/ns#"
   xmlns:rdf="http://www.w3.org/1999/02/22-rdf-syntax-ns#"
   xmlns:svg="http://www.w3.org/2000/svg"
   xmlns="http://www.w3.org/2000/svg"
   xmlns:sodipodi="http://sodipodi.sourceforge.net/DTD/sodipodi-0.dtd"
   xmlns:inkscape="http://www.inkscape.org/namespaces/inkscape"
   width="499.37051"
   height="360.48303"
   id="svg13917"
   version="1.1"
   inkscape:version="0.48.4 r9939"
   sodipodi:docname="New document 2">
  <defs
     id="defs13919">
    <filter
       color-interpolation-filters="sRGB"
       inkscape:collect="always"
       id="filter5007-5-2-6-7"
       x="-0.10625017"
       width="1.2125003"
       y="-0.13783754"
       height="1.2756751">
      <feGaussianBlur
         inkscape:collect="always"
         stdDeviation="13.623428"
         id="feGaussianBlur5009-6-4-0-5" />
    </filter>
  </defs>
  <sodipodi:namedview
     id="base"
     pagecolor="#ffffff"
     bordercolor="#666666"
     borderopacity="1.0"
     inkscape:pageopacity="0.0"
     inkscape:pageshadow="2"
     inkscape:zoom="0.62258543"
     inkscape:cx="219.62771"
     inkscape:cy="139.04445"
     inkscape:document-units="px"
     inkscape:current-layer="layer1"
     showgrid="false"
     fit-margin-top="0"
     fit-margin-left="0"
     fit-margin-right="0"
     fit-margin-bottom="0"
     inkscape:window-width="1440"
     inkscape:window-height="842"
     inkscape:window-x="0"
     inkscape:window-y="0"
     inkscape:window-maximized="1" />
  <metadata
     id="metadata13922">
    <rdf:RDF>
      <cc:Work
         rdf:about="">
        <dc:format>image/svg+xml</dc:format>
        <dc:type
           rdf:resource="http://purl.org/dc/dcmitype/StillImage" />
        <dc:title></dc:title>
      </cc:Work>
    </rdf:RDF>
  </metadata>
  <g
     inkscape:label="Layer 1"
     inkscape:groupmode="layer"
     id="layer1"
     transform="translate(978.84235,520.31943)">
    <rect
       style="fill:#ffffff;fill-opacity:1;stroke:none"
       id="rect4545"
       width="499.37051"
       height="360.48303"
       x="-978.84235"
       y="-520.31946"
       inkscape:export-filename="/home/xtingray/Pictures/tupi/thanks.png"
       inkscape:export-xdpi="180.23"
       inkscape:export-ydpi="180.23" />
    <path
       style="fill:none;stroke:#000000;stroke-width:1.5;stroke-linecap:round;stroke-linejoin:round;stroke-miterlimit:6;stroke-opacity:0.11764706;stroke-dasharray:1.5, 3;stroke-dashoffset:0"
       d="m -480.7569,-505.78661 c -15.1533,0.7643 -86.0073,35.38943 -56.8921,81.10461 29.7998,46.79015 82.2879,-19.02641 35.4246,-16.77996 -46.5106,2.22954 -1.2952,93.28088 -31.9748,77.62667 -30.979,-15.80699 1.774,-39.51635 21.0122,-11.6066 19.3328,28.04694 -31.3802,121.30666 5.3431,121.05992 34.6021,-0.23249 -16.282,-57.10559 -38.1838,-34.64823 -21.2037,21.74151 62.5357,71.36403 57.883,101.0465 -4.761,30.3728 -25.2011,21.09046 -29.1756,16.4138 -3.9745,-4.67667 -5.3261,-13.94657 -22.5851,-2.34279 -17.259,11.60378 -22.0849,10.60164 -33.6895,5.83958 -11.3683,-4.66509 -18.5166,-6.53586 -29.7071,-1.0583 -11.4528,5.60594 -27.669,2.50812 -31.8217,0.16392 -14.6472,-8.26815 -29.0068,-4.84999 -34.9388,-2.19709 -5.0275,2.24838 -11.8434,6.44351 -21.8919,1.34623 -14.1193,-7.16234 -25.7455,7.07308 -43.6202,0.29933 -12.2566,-4.64472 -24.7262,-3.76825 -40.5133,3.11347 -13.0974,5.70923 -28.5963,-5.81263 -40.9642,-2.09156 -12.4127,3.73459 -21.974,5.91163 -35.8551,0.56314 -10.1588,-3.91422 -20.6177,-5.14927 -26.9572,-0.96908 -7.0867,4.67281 -3.6355,-5.44634 -21.5401,-1.1719 -17.3223,4.13544 -21.337,-21.16929 -32.2319,-7.54768 -11.9666,14.96152 -35.4153,4.07749 -38.1204,-10.08276 -2.6499,-13.87164 8.7572,-51.70723 25.3054,-68.03824"
       id="path4626"
       sodipodi:nodetypes="czzzzzzzszzssssssssszzzz"
       inkscape:export-filename="/home/xtingray/Pictures/tupi/thanks.png"
       inkscape:export-xdpi="180.23"
       inkscape:export-ydpi="180.23"
       inkscape:connector-curvature="0" />
    <g
       id="g17040"
       transform="matrix(0.07650192,0.00408959,-0.00408959,0.07650192,-953.82187,-298.03553)"
       inkscape:transform-center-x="20.584403"
       inkscape:transform-center-y="7.7488966"
       inkscape:export-filename="/home/xtingray/Pictures/tupi/thanks.png"
       inkscape:export-xdpi="180.23"
       inkscape:export-ydpi="180.23">
      <path
         transform="matrix(1.4094952,0,0,1.4094952,-2058.65,154.2794)"
         inkscape:export-ydpi="385.91"
         inkscape:export-xdpi="385.91"
         inkscape:export-filename="/home/xtingray/Pictures/tupi.png"
         sodipodi:nodetypes="cccccccccccc"
         inkscape:connector-curvature="0"
         id="path3941-2-6-3-93-7-6-4-3-54-6-9-9-0-8"
         d="m 1573.6209,255.5627 c 31.3268,-83.10521 70.4069,-155.565113 117.5654,-210.869613 -1.1985,38.0566 -8.7109,67.995403 -9.9094,106.052003 28.9233,-43.2465 85.2614,-85.370403 140.3186,-115.050603 -29.8185,38.736 -82.7341,83.931203 -124.101,125.897003 47.2296,-21.8757 92.642,-37.4292 183.855,-40.8419 -36.2778,15.6387 -64.4376,33.0816 -100.7153,48.7205 25.5783,23.3658 51.1566,46.73148 76.7349,70.09728 -67.0576,-27.63558 -104.0145,-40.61668 -169.3162,-35.78288 27.9243,22.58768 55.8485,45.17534 83.7728,67.76299 -74.2355,-11.83375 -144.0495,-86.43009 -181.6361,1.3554 -5.5229,-5.78 -11.0458,-11.56018 -16.5687,-17.34018 z"
         style="fill:#5c5c5c;fill-opacity:1;stroke:none;filter:url(#filter5007-5-2-6-7)" />
      <path
         inkscape:export-ydpi="385.91"
         inkscape:export-xdpi="385.91"
         inkscape:export-filename="/home/xtingray/Pictures/tupi.png"
         sodipodi:nodetypes="cccccccccccc"
         inkscape:connector-curvature="0"
         id="path3941-2-6-3-93-7-6-4-3-54-9-1-8-8"
         d="m 134.1655,509.45479 c 44.1549,-117.13647 99.2381,-219.26837 165.708,-297.21971 -1.6893,53.6405 -12.278,95.83918 -13.9673,149.47978 40.7673,-60.95577 120.1756,-120.32928 197.7784,-162.1633 -42.029,54.59814 -116.6133,118.30068 -174.9198,177.45112 66.57,-30.83356 130.5785,-52.75623 259.1428,-57.56642 -51.1334,22.04269 -90.8245,46.62831 -141.9577,68.6713 36.0524,32.93406 72.1049,65.86784 108.1574,98.8019 -94.5173,-38.9524 -146.608,-57.2491 -238.6503,-50.43578 39.3591,31.83717 78.7181,63.67433 118.0773,95.5115 C 308.8998,515.30557 210.4971,410.16235 157.519,533.8956 149.7344,525.74876 141.95,517.60163 134.1655,509.45479 z"
         style="fill:#23a0ff;fill-opacity:1;stroke:#0064be;stroke-width:17.30809975;stroke-linecap:round;stroke-linejoin:round;stroke-miterlimit:4;stroke-opacity:1;stroke-dasharray:none" />
      <path
         inkscape:export-ydpi="385.91"
         inkscape:export-xdpi="385.91"
         inkscape:export-filename="/home/xtingray/Pictures/tupi.png"
         sodipodi:nodetypes="cc"
         inkscape:connector-curvature="0"
         id="path4100-9-2-8-75-0-4-1-1-3-1-0-7-6"
         d="M 146.2256,520.27746 C 176.5245,460.9586 210.6084,420.71307 279.3883,385.47613"
         style="fill:none;stroke:#0064be;stroke-width:17.30849838;stroke-linecap:round;stroke-linejoin:round;stroke-miterlimit:4;stroke-opacity:1;stroke-dasharray:none" />
      <path
         transform="matrix(1.4094952,0,0,1.4094952,-2058.65,154.2794)"
         style="fill:#5c5c5c;fill-opacity:1;stroke:none;filter:url(#filter5007-5-2-6-7)"
         d="m 1573.6209,255.5627 c 31.3268,-83.10521 70.4069,-155.565113 117.5654,-210.869613 -1.1985,38.0566 -8.7109,67.995403 -9.9094,106.052003 28.9233,-43.2465 85.2614,-85.370403 140.3186,-115.050603 -29.8185,38.736 -82.7341,83.931203 -124.101,125.897003 47.2296,-21.8757 92.642,-37.4292 183.855,-40.8419 -36.2778,15.6387 -64.4376,33.0816 -100.7153,48.7205 25.5783,23.3658 51.1566,46.73148 76.7349,70.09728 -67.0576,-27.63558 -104.0145,-40.61668 -169.3162,-35.78288 27.9243,22.58768 55.8485,45.17534 83.7728,67.76299 -74.2355,-11.83375 -144.0495,-86.43009 -181.6361,1.3554 -5.5229,-5.78 -11.0458,-11.56018 -16.5687,-17.34018 z"
         id="path3644-7"
         inkscape:connector-curvature="0"
         sodipodi:nodetypes="cccccccccccc"
         inkscape:export-filename="/home/xtingray/Pictures/tupi.png"
         inkscape:export-xdpi="385.91"
         inkscape:export-ydpi="385.91" />
      <path
         inkscape:export-ydpi="385.91"
         inkscape:export-xdpi="385.91"
         inkscape:export-filename="/home/xtingray/Pictures/tupi.png"
         style="fill:#23a0ff;fill-opacity:1;stroke:#0064be;stroke-width:17.30809975;stroke-linecap:round;stroke-linejoin:round;stroke-miterlimit:4;stroke-opacity:1;stroke-dasharray:none"
         d="m 134.1655,509.45479 c 44.1549,-117.13647 99.2381,-219.26837 165.708,-297.21971 -1.6893,53.6405 -12.278,95.83918 -13.9673,149.47978 40.7673,-60.95577 120.1756,-120.32928 197.7784,-162.1633 -42.029,54.59814 -116.6133,118.30068 -174.9198,177.45112 66.57,-30.83356 130.5785,-52.75623 259.1428,-57.56642 -51.1334,22.04269 -90.8245,46.62831 -141.9577,68.6713 36.0524,32.93406 72.1049,65.86784 108.1574,98.8019 -94.5173,-38.9524 -146.608,-57.2491 -238.6503,-50.43578 39.3591,31.83717 78.7181,63.67433 118.0773,95.5115 C 308.8998,515.30557 210.4971,410.16235 157.519,533.8956 149.7344,525.74876 141.95,517.60163 134.1655,509.45479 z"
         id="path3648-0"
         inkscape:connector-curvature="0"
         sodipodi:nodetypes="cccccccccccc" />
      <path
         inkscape:export-ydpi="385.91"
         inkscape:export-xdpi="385.91"
         inkscape:export-filename="/home/xtingray/Pictures/tupi.png"
         style="fill:none;stroke:#0064be;stroke-width:17.30849838;stroke-linecap:round;stroke-linejoin:round;stroke-miterlimit:4;stroke-opacity:1;stroke-dasharray:none"
         d="M 146.2256,520.27746 C 176.5245,460.9586 210.6084,420.71307 279.3883,385.47613"
         id="path3650-60"
         inkscape:connector-curvature="0"
         sodipodi:nodetypes="cc" />
    </g>
  </g>
</svg>
